<svg width="1584" height="396" viewBox="0 0 1584 396" fill="none" xmlns="http://www.w3.org/2000/svg">
  <defs>
    <radialGradient id="bgGlow1" cx="0" cy="0" r="1" gradientUnits="userSpaceOnUse" gradientTransform="translate(1210 -20) rotate(118) scale(700 620)">
      <stop stop-color="#8B12B8" stop-opacity="0.42"/>
      <stop offset="0.52" stop-color="#220035" stop-opacity="0.24"/>
      <stop offset="1" stop-color="#08000E" stop-opacity="0"/>
    </radialGradient>
    <radialGradient id="bgGlow2" cx="0" cy="0" r="1" gradientUnits="userSpaceOnUse" gradientTransform="translate(1340 238) rotate(118) scale(510 430)">
      <stop stop-color="#EE2FDC" stop-opacity="0.30"/>
      <stop offset="0.62" stop-color="#8B12B8" stop-opacity="0.10"/>
      <stop offset="1" stop-color="#08000E" stop-opacity="0"/>
    </radialGradient>
    <linearGradient id="headlineAccent" x1="885" y1="172" x2="1370" y2="172" gradientUnits="userSpaceOnUse">
      <stop stop-color="#EE2FDC"/>
      <stop offset="1" stop-color="#B08AE0"/>
    </linearGradient>
    <filter id="softGlow" x="-100%" y="-100%" width="300%" height="300%">
      <feGaussianBlur stdDeviation="10" result="blur"/>
      <feMerge>
        <feMergeNode in="blur"/>
        <feMergeNode in="SourceGraphic"/>
      </feMerge>
    </filter>
  </defs>

  <rect width="1584" height="396" fill="#08000E"/>
  <rect width="1584" height="396" fill="url(#bgGlow1)"/>
  <rect width="1584" height="396" fill="url(#bgGlow2)"/>

  <!-- Unsafe LinkedIn avatar collision guide: remove before exporting if using as production art -->
  <rect x="0" y="190" width="360" height="206" fill="#FFFFFF" opacity="0.025"/>

  <!-- Logo placeholder: replace with Nuru logo or icon in Canva -->
  <g transform="translate(72 42)">
    <rect x="0" y="0" width="168" height="56" rx="14" fill="#220035" fill-opacity="0.58" stroke="#B08AE0" stroke-opacity="0.24"/>
    <circle cx="31" cy="28" r="15" fill="#EE2FDC" fill-opacity="0.80"/>
    <path d="M25 29C30 17 39 18 39 28C39 39 29 38 25 29Z" fill="#F0EDF8" fill-opacity="0.85"/>
    <text x="56" y="25" fill="#F0EDF8" font-family="Jost, Arial, sans-serif" font-size="14" font-weight="600" letter-spacing="2.5">NURU</text>
    <text x="56" y="42" fill="#A090C0" font-family="Jost, Arial, sans-serif" font-size="10" font-weight="500" letter-spacing="2.2">DIGITAL</text>
  </g>

  <g transform="translate(500 72)">
    <text x="2" y="18" fill="#B08AE0" font-family="Jost, Arial, sans-serif" font-size="18" font-weight="600" letter-spacing="3.1">NURU DIGITAL · DUBAI GROWTH STRATEGY</text>

    <text x="0" y="86" fill="#F0EDF8" font-family="Syne, Arial, sans-serif" font-size="56" font-weight="800" letter-spacing="-1.4">
      <tspan x="0" dy="0">From Luxury Hospitality</tspan>
      <tspan x="0" dy="57">to </tspan><tspan fill="url(#headlineAccent)">Digital Growth Systems</tspan>
    </text>

    <text x="3" y="184" fill="#C0B0D8" font-family="Jost, Arial, sans-serif" font-size="25" font-weight="400">
      Websites, SEO &amp; AI automation that build trust,
      <tspan x="3" dy="32">visibility and qualified leads.</tspan>
    </text>

    <text x="3" y="247" fill="#A090C0" font-family="Jost, Arial, sans-serif" font-size="20" font-weight="500">Kelvin Wambugu · Founder, Nuru Digital</text>

    <g transform="translate(3 274)" font-family="Jost, Arial, sans-serif" font-size="15" font-weight="500" fill="#F0EDF8">
      <rect x="0" y="0" width="112" height="34" rx="17" fill="#220035" fill-opacity="0.68" stroke="#B08AE0" stroke-opacity="0.28"/>
      <text x="18" y="22">Web Design</text>
      <rect x="124" y="0" width="124" height="34" rx="17" fill="#220035" fill-opacity="0.68" stroke="#B08AE0" stroke-opacity="0.28"/>
      <text x="142" y="22">SEO Strategy</text>
      <rect x="260" y="0" width="132" height="34" rx="17" fill="#220035" fill-opacity="0.68" stroke="#B08AE0" stroke-opacity="0.28"/>
      <text x="278" y="22">AI Automation</text>
    </g>
  </g>

  <!-- Abstract growth signal motif -->
  <g filter="url(#softGlow)">
    <line x1="1273" y1="245" x2="1370" y2="130" stroke="#B08AE0" stroke-opacity="0.35" stroke-width="2"/>
    <rect x="1269" y="210" width="8" height="70" rx="4" fill="#7055D4" fill-opacity="0.55"/>
    <rect x="1317" y="170" width="8" height="110" rx="4" fill="#B08AE0" fill-opacity="0.62"/>
    <rect x="1365" y="120" width="8" height="160" rx="4" fill="#EE2FDC" fill-opacity="0.74"/>
    <circle cx="1273" cy="210" r="7" fill="#7055D4"/>
    <circle cx="1321" cy="170" r="7" fill="#B08AE0"/>
    <circle cx="1369" cy="120" r="7" fill="#EE2FDC"/>
  </g>

  <path d="M720 334C920 295 1050 256 1230 165C1360 100 1465 83 1540 92" stroke="#B08AE0" stroke-opacity="0.16" stroke-width="1.4"/>
</svg>
